<svg width="16" height="16" viewBox="0 0 16 16" fill="none" xmlns="http://www.w3.org/2000/svg">
  <!-- Background -->
  <circle cx="8" cy="8" r="8" fill="#1e293b"/>
  
  <!-- Map base -->
  <rect x="2" y="2" width="12" height="12" fill="#0f172a" rx="1"/>
  
  <!-- Grid lines -->
  <line x1="2" y1="5" x2="14" y2="5" stroke="#374151" stroke-width="0.5"/>
  <line x1="2" y1="8" x2="14" y2="8" stroke="#374151" stroke-width="0.5"/>
  <line x1="2" y1="11" x2="14" y2="11" stroke="#374151" stroke-width="0.5"/>
  <line x1="5" y1="2" x2="5" y2="14" stroke="#374151" stroke-width="0.5"/>
  <line x1="8" y1="2" x2="8" y2="14" stroke="#374151" stroke-width="0.5"/>
  <line x1="11" y1="2" x2="11" y2="14" stroke="#374151" stroke-width="0.5"/>
  
  <!-- Shield -->
  <path d="M8 4L6 5V7.5C6 9 7 10 8 10.5C9 10 10 9 10 7.5V5L8 4Z" fill="#ef4444"/>
  
  <!-- Crime markers -->
  <circle cx="4" cy="4" r="0.5" fill="#dc2626"/>
  <circle cx="12" cy="6" r="0.5" fill="#dc2626"/>
  <circle cx="6" cy="12" r="0.5" fill="#dc2626"/>
  <circle cx="11" cy="11" r="0.5" fill="#dc2626"/>
</svg>